<svg width="30" height="30" viewBox="0 0 30 30" fill="none" xmlns="http://www.w3.org/2000/svg">
<path d="M24.5999 2.40002H5.3999C3.7439 2.40002 2.3999 3.74402 2.3999 5.40002V24.6C2.3999 26.256 3.7439 27.6 5.3999 27.6H24.5999C26.2559 27.6 27.5999 26.256 27.5999 24.6V5.40002C27.5999 3.74402 26.2559 2.40002 24.5999 2.40002ZM22.1999 11.4H20.9999C19.7159 11.4 19.1999 11.7 19.1999 12.6V14.4H22.1999L21.5999 17.4H19.1999V26.4H16.1999V17.4H13.7999V14.4H16.1999V12.6C16.1999 10.2 17.3999 8.40002 19.7999 8.40002C21.5399 8.40002 22.1999 9.00002 22.1999 9.00002V11.4Z" fill="#5E5E5E"/>
</svg>
