<svg width="50" height="50" viewBox="0 0 50 50" fill="none" xmlns="http://www.w3.org/2000/svg">
<circle cx="25" cy="25" r="24.7748" stroke="black" stroke-width="0.45045"/>
<circle cx="6.41892" cy="6.41892" r="6.19369" transform="matrix(-1 0 0 1 31.3064 11.4865)" stroke="black" stroke-width="0.45045"/>
<circle cx="10.8108" cy="29.054" r="1.8018" stroke="black" stroke-width="0.45045"/>
<mask id="path-4-inside-1_320_682" fill="white">
<path fill-rule="evenodd" clip-rule="evenodd" d="M13.5269 19.8331C19.8474 20.1253 24.9198 25.1977 25.212 31.5183C18.8914 31.2261 13.819 26.1537 13.5269 19.8331Z"/>
</mask>
<path d="M13.5269 19.8331L13.5477 19.3832L13.0541 19.3603L13.0769 19.8539L13.5269 19.8331ZM25.212 31.5183L25.1912 31.9682L25.6848 31.991L25.662 31.4975L25.212 31.5183ZM13.5061 20.2831C19.5942 20.5645 24.4806 25.4509 24.762 31.5391L25.662 31.4975C25.3591 24.9445 20.1007 19.6861 13.5477 19.3832L13.5061 20.2831ZM25.2328 31.0683C19.1446 30.7869 14.2582 25.9005 13.9768 19.8123L13.0769 19.8539C13.3798 26.4069 18.6382 31.6653 25.1912 31.9682L25.2328 31.0683Z" fill="black" mask="url(#path-4-inside-1_320_682)"/>
<mask id="path-6-inside-2_320_682" fill="white">
<path fill-rule="evenodd" clip-rule="evenodd" d="M11.8499 40.5209C12.0183 36.2784 15.3998 32.8526 19.6397 32.6289C19.4713 36.8714 16.0898 40.2972 11.8499 40.5209Z"/>
</mask>
<path d="M11.8499 40.5209L11.3998 40.503L11.3802 40.9968L11.8736 40.9707L11.8499 40.5209ZM19.6397 32.6289L20.0898 32.6468L20.1094 32.153L19.616 32.1791L19.6397 32.6289ZM12.2999 40.5388C12.4591 36.5288 15.6559 33.2901 19.6635 33.0787L19.616 32.1791C15.1437 32.415 11.5774 36.028 11.3998 40.503L12.2999 40.5388ZM19.1896 32.611C19.0304 36.621 15.8337 39.8597 11.8261 40.0711L11.8736 40.9707C16.3459 40.7348 19.9122 37.1218 20.0898 32.6468L19.1896 32.611Z" fill="black" mask="url(#path-6-inside-2_320_682)"/>
<path d="M24.7748 6.53152V8.78378" stroke="black" stroke-width="0.45045" stroke-linecap="round"/>
<path d="M20.5609 7.50027L21.3312 9.6167" stroke="black" stroke-width="0.45045" stroke-linecap="round"/>
<path d="M21.3313 37.8378L20.561 39.9543" stroke="black" stroke-width="0.45045" stroke-linecap="round"/>
<path d="M16.7714 10.0145L18.3639 11.6071" stroke="black" stroke-width="0.45045" stroke-linecap="round"/>
<path d="M14.2573 13.804L16.3737 14.5743" stroke="black" stroke-width="0.45045" stroke-linecap="round"/>
<circle cx="2.02703" cy="2.02703" r="1.8018" transform="matrix(-1 0 0 1 41.2029 27.027)" stroke="black" stroke-width="0.45045"/>
<mask id="path-14-inside-3_320_682" fill="white">
<path fill-rule="evenodd" clip-rule="evenodd" d="M24.7748 31.5183C31.0954 31.2261 36.1678 26.1537 36.46 19.8331C30.1394 20.1253 25.067 25.1977 24.7748 31.5183Z"/>
</mask>
<path d="M24.7748 31.5183L24.7956 31.9682L24.3021 31.991L24.3249 31.4975L24.7748 31.5183ZM36.46 19.8331L36.4392 19.3832L36.9327 19.3603L36.9099 19.8539L36.46 19.8331ZM24.754 31.0683C30.8422 30.7869 35.7286 25.9005 36.01 19.8123L36.9099 19.8539C36.607 26.4069 31.3486 31.6653 24.7956 31.9682L24.754 31.0683ZM36.4808 20.2831C30.3926 20.5645 25.5062 25.4509 25.2248 31.5391L24.3249 31.4975C24.6278 24.9445 29.8862 19.6861 36.4392 19.3832L36.4808 20.2831Z" fill="black" mask="url(#path-14-inside-3_320_682)"/>
<mask id="path-16-inside-4_320_682" fill="white">
<path fill-rule="evenodd" clip-rule="evenodd" d="M38.1368 40.5209C37.9684 36.2784 34.5869 32.8526 30.347 32.6289C30.5154 36.8714 33.8969 40.2972 38.1368 40.5209Z"/>
</mask>
<path d="M38.1368 40.5209L38.5869 40.503L38.6065 40.9968L38.1131 40.9707L38.1368 40.5209ZM30.347 32.6289L29.8969 32.6468L29.8773 32.153L30.3707 32.1791L30.347 32.6289ZM37.6867 40.5388C37.5276 36.5288 34.3308 33.2901 30.3232 33.0787L30.3707 32.1791C34.843 32.415 38.4093 36.028 38.5869 40.503L37.6867 40.5388ZM30.7971 32.611C30.9563 36.621 34.153 39.8597 38.1606 40.0711L38.1131 40.9707C33.6408 40.7348 30.0745 37.1218 29.8969 32.6468L30.7971 32.611Z" fill="black" mask="url(#path-16-inside-4_320_682)"/>
<path d="M29.2006 7.50027L28.4302 9.6167" stroke="black" stroke-width="0.45045" stroke-linecap="round"/>
<path d="M28.6554 37.8378L29.4257 39.9543" stroke="black" stroke-width="0.45045" stroke-linecap="round"/>
<path d="M32.9901 10.0145L31.3975 11.6071" stroke="black" stroke-width="0.45045" stroke-linecap="round"/>
<path d="M35.5043 13.804L33.3878 14.5743" stroke="black" stroke-width="0.45045" stroke-linecap="round"/>
<path d="M25 31.0811L25 43.2432" stroke="black" stroke-width="0.45045" stroke-linecap="round"/>
</svg>
