<svg width="125" height="58" viewBox="0 0 125 58" fill="none" xmlns="http://www.w3.org/2000/svg">
<path d="M5.632 24.182C6.36533 24.182 6.92267 24.27 7.304 24.446C7.68533 24.6073 8.02267 24.7907 8.316 24.996C8.492 25.0987 8.63133 25.1793 8.734 25.238C8.85133 25.282 8.96133 25.304 9.064 25.304C9.21067 25.304 9.31333 25.2233 9.372 25.062C9.44533 24.9007 9.504 24.6587 9.548 24.336H10.054C10.0393 24.5853 10.0173 24.886 9.988 25.238C9.97333 25.5753 9.95867 26.03 9.944 26.602C9.944 27.1593 9.944 27.9 9.944 28.824H9.438C9.394 28.12 9.24 27.4453 8.976 26.8C8.712 26.1547 8.32333 25.6267 7.81 25.216C7.31133 24.8053 6.65133 24.6 5.83 24.6C5.05267 24.6 4.40733 24.8347 3.894 25.304C3.39533 25.7733 3.146 26.3893 3.146 27.152C3.146 27.812 3.31467 28.3693 3.652 28.824C3.98933 29.264 4.43667 29.6673 4.994 30.034C5.566 30.386 6.182 30.7673 6.842 31.178C7.60467 31.6473 8.27933 32.1167 8.866 32.586C9.46733 33.0407 9.93667 33.5467 10.274 34.104C10.626 34.6613 10.802 35.336 10.802 36.128C10.802 37.0667 10.5893 37.844 10.164 38.46C9.73867 39.076 9.174 39.538 8.47 39.846C7.766 40.154 6.98867 40.308 6.138 40.308C5.36067 40.308 4.74467 40.22 4.29 40.044C3.83533 39.868 3.44667 39.6847 3.124 39.494C2.80133 39.2887 2.552 39.186 2.376 39.186C2.22933 39.186 2.11933 39.2667 2.046 39.428C1.98733 39.5893 1.936 39.8313 1.892 40.154H1.386C1.41533 39.846 1.43 39.4867 1.43 39.076C1.44467 38.6507 1.452 38.1007 1.452 37.426C1.46667 36.7513 1.474 35.9007 1.474 34.874H1.98C2.03867 35.754 2.2 36.5753 2.464 37.338C2.74267 38.1007 3.16067 38.7167 3.718 39.186C4.29 39.6407 5.04533 39.868 5.984 39.868C6.468 39.868 6.92267 39.7727 7.348 39.582C7.788 39.3767 8.14733 39.0613 8.426 38.636C8.70467 38.196 8.844 37.6313 8.844 36.942C8.844 36.3407 8.69733 35.82 8.404 35.38C8.12533 34.9253 7.72933 34.5073 7.216 34.126C6.70267 33.73 6.10133 33.3267 5.412 32.916C4.72267 32.4907 4.07733 32.058 3.476 31.618C2.87467 31.178 2.39067 30.672 2.024 30.1C1.672 29.5133 1.496 28.8093 1.496 27.988C1.496 27.1227 1.68667 26.4113 2.068 25.854C2.464 25.282 2.97733 24.864 3.608 24.6C4.23867 24.3213 4.91333 24.182 5.632 24.182ZM25.9829 24.424C25.9242 24.9373 25.8802 25.436 25.8509 25.92C25.8362 26.404 25.8289 26.7707 25.8289 27.02C25.8289 27.284 25.8362 27.5407 25.8509 27.79C25.8655 28.0247 25.8802 28.2227 25.8949 28.384H25.3889C25.3009 27.5187 25.1762 26.8367 25.0149 26.338C24.8535 25.8247 24.5749 25.4653 24.1789 25.26C23.7975 25.04 23.2182 24.93 22.4409 24.93H20.6149C20.1162 24.93 19.7349 24.974 19.4709 25.062C19.2215 25.1353 19.0529 25.304 18.9649 25.568C18.8769 25.8173 18.8329 26.2133 18.8329 26.756V37.668C18.8329 38.196 18.8769 38.592 18.9649 38.856C19.0529 39.12 19.2215 39.296 19.4709 39.384C19.7349 39.4573 20.1162 39.494 20.6149 39.494H22.2209C23.1449 39.494 23.8415 39.3693 24.3109 39.12C24.7949 38.8707 25.1395 38.4673 25.3449 37.91C25.5649 37.338 25.7262 36.568 25.8289 35.6H26.3349C26.2909 35.996 26.2689 36.524 26.2689 37.184C26.2689 37.4627 26.2762 37.866 26.2909 38.394C26.3202 38.9073 26.3642 39.4427 26.4229 40C25.6749 39.9707 24.8315 39.956 23.8929 39.956C22.9542 39.9413 22.1182 39.934 21.3849 39.934C21.0622 39.934 20.6442 39.934 20.1309 39.934C19.6322 39.934 19.0895 39.9413 18.5029 39.956C17.9162 39.956 17.3222 39.9633 16.7209 39.978C16.1195 39.978 15.5475 39.9853 15.0049 40V39.56C15.5035 39.5307 15.8775 39.472 16.1269 39.384C16.3909 39.296 16.5669 39.12 16.6549 38.856C16.7429 38.592 16.7869 38.196 16.7869 37.668V26.756C16.7869 26.2133 16.7429 25.8173 16.6549 25.568C16.5669 25.304 16.3909 25.128 16.1269 25.04C15.8775 24.9373 15.5035 24.8787 15.0049 24.864V24.424C15.5475 24.4387 16.1195 24.4533 16.7209 24.468C17.3222 24.468 17.9162 24.4753 18.5029 24.49C19.0895 24.49 19.6322 24.49 20.1309 24.49C20.6442 24.49 21.0622 24.49 21.3849 24.49C22.0595 24.49 22.8222 24.49 23.6729 24.49C24.5382 24.4753 25.3082 24.4533 25.9829 24.424ZM22.1989 31.948C22.1989 31.948 22.1989 32.0213 22.1989 32.168C22.1989 32.3147 22.1989 32.388 22.1989 32.388H18.1729C18.1729 32.388 18.1729 32.3147 18.1729 32.168C18.1729 32.0213 18.1729 31.948 18.1729 31.948H22.1989ZM22.8369 29.044C22.7782 29.88 22.7489 30.518 22.7489 30.958C22.7635 31.398 22.7709 31.8013 22.7709 32.168C22.7709 32.5347 22.7782 32.938 22.7929 33.378C22.8075 33.818 22.8442 34.456 22.9029 35.292H22.3969C22.3382 34.8227 22.2649 34.368 22.1769 33.928C22.1035 33.4733 21.9275 33.1067 21.6489 32.828C21.3849 32.5347 20.9302 32.388 20.2849 32.388V31.948C20.7689 31.948 21.1355 31.8527 21.3849 31.662C21.6489 31.4567 21.8395 31.2 21.9569 30.892C22.0742 30.584 22.1549 30.2687 22.1989 29.946C22.2429 29.6087 22.2869 29.308 22.3309 29.044H22.8369ZM41.5891 24.424C41.5304 24.9373 41.4864 25.436 41.4571 25.92C41.4424 26.404 41.4351 26.7707 41.4351 27.02C41.4351 27.284 41.4424 27.5407 41.4571 27.79C41.4718 28.0247 41.4864 28.2227 41.5011 28.384H40.9951C40.9071 27.5187 40.7824 26.8367 40.6211 26.338C40.4598 25.8247 40.1811 25.4653 39.7851 25.26C39.4038 25.04 38.8244 24.93 38.0471 24.93H36.2211C35.7224 24.93 35.3411 24.974 35.0771 25.062C34.8278 25.1353 34.6591 25.304 34.5711 25.568C34.4831 25.8173 34.4391 26.2133 34.4391 26.756V37.668C34.4391 38.196 34.4831 38.592 34.5711 38.856C34.6591 39.12 34.8278 39.296 35.0771 39.384C35.3411 39.4573 35.7224 39.494 36.2211 39.494H37.8271C38.7511 39.494 39.4478 39.3693 39.9171 39.12C40.4011 38.8707 40.7458 38.4673 40.9511 37.91C41.1711 37.338 41.3324 36.568 41.4351 35.6H41.9411C41.8971 35.996 41.8751 36.524 41.8751 37.184C41.8751 37.4627 41.8824 37.866 41.8971 38.394C41.9264 38.9073 41.9704 39.4427 42.0291 40C41.2811 39.9707 40.4378 39.956 39.4991 39.956C38.5604 39.9413 37.7244 39.934 36.9911 39.934C36.6684 39.934 36.2504 39.934 35.7371 39.934C35.2384 39.934 34.6958 39.9413 34.1091 39.956C33.5224 39.956 32.9284 39.9633 32.3271 39.978C31.7258 39.978 31.1538 39.9853 30.6111 40V39.56C31.1098 39.5307 31.4838 39.472 31.7331 39.384C31.9971 39.296 32.1731 39.12 32.2611 38.856C32.3491 38.592 32.3931 38.196 32.3931 37.668V26.756C32.3931 26.2133 32.3491 25.8173 32.2611 25.568C32.1731 25.304 31.9971 25.128 31.7331 25.04C31.4838 24.9373 31.1098 24.8787 30.6111 24.864V24.424C31.1538 24.4387 31.7258 24.4533 32.3271 24.468C32.9284 24.468 33.5224 24.4753 34.1091 24.49C34.6958 24.49 35.2384 24.49 35.7371 24.49C36.2504 24.49 36.6684 24.49 36.9911 24.49C37.6658 24.49 38.4284 24.49 39.2791 24.49C40.1444 24.4753 40.9144 24.4533 41.5891 24.424ZM37.8051 31.948C37.8051 31.948 37.8051 32.0213 37.8051 32.168C37.8051 32.3147 37.8051 32.388 37.8051 32.388H33.7791C33.7791 32.388 33.7791 32.3147 33.7791 32.168C33.7791 32.0213 33.7791 31.948 33.7791 31.948H37.8051ZM38.4431 29.044C38.3844 29.88 38.3551 30.518 38.3551 30.958C38.3698 31.398 38.3771 31.8013 38.3771 32.168C38.3771 32.5347 38.3844 32.938 38.3991 33.378C38.4138 33.818 38.4504 34.456 38.5091 35.292H38.0031C37.9444 34.8227 37.8711 34.368 37.7831 33.928C37.7098 33.4733 37.5338 33.1067 37.2551 32.828C36.9911 32.5347 36.5364 32.388 35.8911 32.388V31.948C36.3751 31.948 36.7418 31.8527 36.9911 31.662C37.2551 31.4567 37.4458 31.2 37.5631 30.892C37.6804 30.584 37.7611 30.2687 37.8051 29.946C37.8491 29.6087 37.8931 29.308 37.9371 29.044H38.4431ZM52.2234 24.424C54.8487 24.424 56.7994 25.084 58.0754 26.404C59.3514 27.7093 59.9894 29.5867 59.9894 32.036C59.9894 33.6347 59.674 35.0353 59.0434 36.238C58.4274 37.426 57.5254 38.35 56.3374 39.01C55.1494 39.67 53.712 40 52.0254 40C51.8054 40 51.512 39.9927 51.1454 39.978C50.7787 39.9633 50.3974 39.956 50.0014 39.956C49.62 39.9413 49.268 39.934 48.9454 39.934C48.432 39.934 47.926 39.9413 47.4274 39.956C46.9287 39.956 46.5254 39.9707 46.2174 40V39.56C46.716 39.5307 47.09 39.472 47.3394 39.384C47.6034 39.296 47.7794 39.12 47.8674 38.856C47.9554 38.592 47.9994 38.196 47.9994 37.668V26.756C47.9994 26.2133 47.9554 25.8173 47.8674 25.568C47.7794 25.304 47.6034 25.128 47.3394 25.04C47.09 24.9373 46.716 24.8787 46.2174 24.864V24.424C46.5254 24.4387 46.9287 24.4607 47.4274 24.49C47.926 24.5047 48.4174 24.5047 48.9014 24.49C49.4147 24.4753 49.994 24.4607 50.6394 24.446C51.2847 24.4313 51.8127 24.424 52.2234 24.424ZM51.6734 24.82C50.9987 24.82 50.5587 24.9447 50.3534 25.194C50.148 25.4433 50.0454 25.9493 50.0454 26.712V37.712C50.0454 38.4747 50.148 38.9807 50.3534 39.23C50.5734 39.4793 51.0207 39.604 51.6954 39.604C53.294 39.604 54.5334 39.318 55.4134 38.746C56.2934 38.1593 56.9094 37.3087 57.2614 36.194C57.6134 35.0793 57.7894 33.7227 57.7894 32.124C57.7894 30.4813 57.5914 29.1247 57.1954 28.054C56.814 26.9687 56.176 26.162 55.2814 25.634C54.4014 25.0913 53.1987 24.82 51.6734 24.82ZM69.0238 24.182C69.7571 24.182 70.3145 24.27 70.6958 24.446C71.0771 24.6073 71.4145 24.7907 71.7078 24.996C71.8838 25.0987 72.0231 25.1793 72.1258 25.238C72.2431 25.282 72.3531 25.304 72.4558 25.304C72.6025 25.304 72.7051 25.2233 72.7638 25.062C72.8371 24.9007 72.8958 24.6587 72.9398 24.336H73.4458C73.4311 24.5853 73.4091 24.886 73.3798 25.238C73.3651 25.5753 73.3505 26.03 73.3358 26.602C73.3358 27.1593 73.3358 27.9 73.3358 28.824H72.8298C72.7858 28.12 72.6318 27.4453 72.3678 26.8C72.1038 26.1547 71.7151 25.6267 71.2018 25.216C70.7031 24.8053 70.0431 24.6 69.2218 24.6C68.4445 24.6 67.7991 24.8347 67.2858 25.304C66.7871 25.7733 66.5378 26.3893 66.5378 27.152C66.5378 27.812 66.7065 28.3693 67.0438 28.824C67.3811 29.264 67.8285 29.6673 68.3858 30.034C68.9578 30.386 69.5738 30.7673 70.2338 31.178C70.9965 31.6473 71.6711 32.1167 72.2578 32.586C72.8591 33.0407 73.3285 33.5467 73.6658 34.104C74.0178 34.6613 74.1938 35.336 74.1938 36.128C74.1938 37.0667 73.9811 37.844 73.5558 38.46C73.1305 39.076 72.5658 39.538 71.8618 39.846C71.1578 40.154 70.3805 40.308 69.5298 40.308C68.7525 40.308 68.1365 40.22 67.6818 40.044C67.2271 39.868 66.8385 39.6847 66.5158 39.494C66.1931 39.2887 65.9438 39.186 65.7678 39.186C65.6211 39.186 65.5111 39.2667 65.4378 39.428C65.3791 39.5893 65.3278 39.8313 65.2838 40.154H64.7778C64.8071 39.846 64.8218 39.4867 64.8218 39.076C64.8365 38.6507 64.8438 38.1007 64.8438 37.426C64.8585 36.7513 64.8658 35.9007 64.8658 34.874H65.3718C65.4305 35.754 65.5918 36.5753 65.8558 37.338C66.1345 38.1007 66.5525 38.7167 67.1098 39.186C67.6818 39.6407 68.4371 39.868 69.3758 39.868C69.8598 39.868 70.3145 39.7727 70.7398 39.582C71.1798 39.3767 71.5391 39.0613 71.8178 38.636C72.0965 38.196 72.2358 37.6313 72.2358 36.942C72.2358 36.3407 72.0891 35.82 71.7958 35.38C71.5171 34.9253 71.1211 34.5073 70.6078 34.126C70.0945 33.73 69.4931 33.3267 68.8038 32.916C68.1145 32.4907 67.4691 32.058 66.8678 31.618C66.2665 31.178 65.7825 30.672 65.4158 30.1C65.0638 29.5133 64.8878 28.8093 64.8878 27.988C64.8878 27.1227 65.0785 26.4113 65.4598 25.854C65.8558 25.282 66.3691 24.864 66.9998 24.6C67.6305 24.3213 68.3051 24.182 69.0238 24.182Z" fill="black"/>
<path d="M0.482955 49.5085V48.7273H5.9375V49.5085H3.65057V56H2.76989V49.5085H0.482955ZM7.2967 56V48.7273H8.17738V51.9659H12.0552V48.7273H12.9359V56H12.0552V52.7472H8.17738V56H7.2967ZM14.699 56V48.7273H19.0882V49.5085H15.5797V51.9659H18.861V52.7472H15.5797V55.2188H19.1451V56H14.699ZM23.4881 56V48.7273H25.9455C26.516 48.7273 26.9824 48.8303 27.3446 49.0362C27.7092 49.2398 27.9791 49.5156 28.1543 49.8636C28.3295 50.2116 28.4171 50.5999 28.4171 51.0284C28.4171 51.4569 28.3295 51.8464 28.1543 52.1967C27.9815 52.5471 27.714 52.8265 27.3517 53.0348C26.9895 53.2408 26.5255 53.3438 25.9597 53.3438H24.1983V52.5625H25.9313C26.3219 52.5625 26.6356 52.495 26.8723 52.3601C27.1091 52.2251 27.2807 52.0429 27.3873 51.8132C27.4962 51.5812 27.5506 51.3196 27.5506 51.0284C27.5506 50.7372 27.4962 50.4768 27.3873 50.2472C27.2807 50.0175 27.1079 49.8376 26.8688 49.7074C26.6297 49.5748 26.3124 49.5085 25.9171 49.5085H24.3688V56H23.4881ZM29.8358 56V48.7273H30.7164V55.2188H34.0971V56H29.8358ZM36.218 56H35.2947L37.9652 48.7273H38.8743L41.5447 56H40.6214L38.4482 49.8778H38.3913L36.218 56ZM36.5589 53.1591H40.2805V53.9403H36.5589V53.1591ZM48.4446 48.7273V56H47.5923L43.6293 50.2898H43.5582V56H42.6776V48.7273H43.5298L47.5071 54.4517H47.5781V48.7273H48.4446ZM49.8091 49.5085V48.7273H55.2637V49.5085H52.9767V56H52.0961V49.5085H49.8091ZM59.4354 56V48.7273H61.978C62.4846 48.7273 62.9025 48.8149 63.2315 48.9901C63.5606 49.1629 63.8056 49.3961 63.9666 49.6896C64.1276 49.9808 64.2081 50.304 64.2081 50.6591C64.2081 50.9716 64.1525 51.2296 64.0412 51.4332C63.9323 51.6368 63.7879 51.7978 63.608 51.9162C63.4304 52.0346 63.2375 52.1222 63.0291 52.179V52.25C63.2517 52.2642 63.4754 52.3423 63.7003 52.4844C63.9252 52.6264 64.1134 52.83 64.2649 53.0952C64.4164 53.3603 64.4922 53.6847 64.4922 54.0682C64.4922 54.4328 64.4093 54.7607 64.2436 55.0518C64.0779 55.343 63.8163 55.5739 63.4588 55.7443C63.1013 55.9148 62.6361 56 62.0632 56H59.4354ZM60.3161 55.2188H62.0632C62.6385 55.2188 63.0469 55.1075 63.2884 54.8849C63.5322 54.66 63.6541 54.3878 63.6541 54.0682C63.6541 53.822 63.5914 53.5947 63.4659 53.3864C63.3404 53.1757 63.1617 53.0076 62.9297 52.8821C62.6977 52.7543 62.4231 52.6903 62.1058 52.6903H60.3161V55.2188ZM60.3161 51.9233H61.9496C62.2147 51.9233 62.4538 51.8712 62.6669 51.767C62.8823 51.6629 63.0528 51.5161 63.1783 51.3267C63.3061 51.1373 63.37 50.9148 63.37 50.6591C63.37 50.3395 63.2588 50.0684 63.0362 49.8459C62.8137 49.621 62.4609 49.5085 61.978 49.5085H60.3161V51.9233ZM66.2376 56H65.3143L67.9847 48.7273H68.8938L71.5643 56H70.641L68.4677 49.8778H68.4109L66.2376 56ZM66.5785 53.1591H70.3001V53.9403H66.5785V53.1591ZM76.6744 50.5455C76.6317 50.1856 76.4589 49.9062 76.1559 49.7074C75.8529 49.5085 75.4812 49.4091 75.0408 49.4091C74.7189 49.4091 74.4371 49.4612 74.1957 49.5653C73.9566 49.6695 73.7695 49.8127 73.6346 49.995C73.502 50.1773 73.4357 50.3845 73.4357 50.6165C73.4357 50.8106 73.4819 50.9775 73.5742 51.1172C73.6689 51.2545 73.7897 51.3693 73.9364 51.4616C74.0832 51.5516 74.2371 51.6262 74.3981 51.6854C74.5591 51.7422 74.707 51.7884 74.842 51.8239L75.5806 52.0227C75.77 52.0724 75.9807 52.1411 76.2127 52.2287C76.4471 52.3163 76.6708 52.4358 76.8839 52.5874C77.0993 52.7365 77.2769 52.9283 77.4165 53.1626C77.5562 53.397 77.6261 53.6847 77.6261 54.0256C77.6261 54.4186 77.5231 54.7737 77.3171 55.0909C77.1135 55.4081 76.8152 55.6603 76.4222 55.8473C76.0316 56.0343 75.5569 56.1278 74.9982 56.1278C74.4774 56.1278 74.0264 56.0438 73.6452 55.8757C73.2665 55.7076 72.9682 55.4732 72.7504 55.1726C72.5349 54.8719 72.413 54.5227 72.3846 54.125H73.2937C73.3174 54.3996 73.4097 54.6269 73.5707 54.8068C73.734 54.9844 73.94 55.117 74.1886 55.2045C74.4395 55.2898 74.7094 55.3324 74.9982 55.3324C75.3344 55.3324 75.6362 55.2779 75.9038 55.169C76.1713 55.0578 76.3832 54.9039 76.5394 54.7074C76.6957 54.5085 76.7738 54.2765 76.7738 54.0114C76.7738 53.7699 76.7063 53.5734 76.5714 53.4219C76.4364 53.2704 76.2589 53.1473 76.0387 53.0526C75.8185 52.9579 75.5806 52.875 75.3249 52.804L74.43 52.5483C73.8619 52.3849 73.4121 52.1518 73.0806 51.8487C72.7492 51.5457 72.5835 51.1491 72.5835 50.6591C72.5835 50.2519 72.6935 49.8968 72.9137 49.5938C73.1362 49.2884 73.4345 49.0516 73.8086 48.8835C74.185 48.7131 74.6052 48.6278 75.0692 48.6278C75.538 48.6278 75.9547 48.7119 76.3192 48.88C76.6838 49.0457 76.9727 49.273 77.1857 49.5618C77.4012 49.8506 77.5148 50.1785 77.5266 50.5455H76.6744ZM79.074 56V48.7273H83.4632V49.5085H79.9547V51.9659H83.236V52.7472H79.9547V55.2188H83.5201V56H79.074ZM87.2949 56H85.0506V48.7273H87.3944C88.0998 48.7273 88.7035 48.8729 89.2054 49.1641C89.7073 49.4529 90.092 49.8684 90.3596 50.4105C90.6271 50.9503 90.7608 51.5966 90.7608 52.3494C90.7608 53.107 90.6259 53.7592 90.356 54.3061C90.0861 54.8506 89.6931 55.2696 89.177 55.5632C88.6609 55.8544 88.0336 56 87.2949 56ZM85.9313 55.2188H87.2381C87.8394 55.2188 88.3378 55.1027 88.7331 54.8707C89.1285 54.6387 89.4232 54.3085 89.6174 53.88C89.8115 53.4515 89.9086 52.9413 89.9086 52.3494C89.9086 51.7623 89.8127 51.2569 89.6209 50.8331C89.4292 50.407 89.1427 50.0803 88.7615 49.853C88.3804 49.6233 87.9057 49.5085 87.3375 49.5085H85.9313V55.2188ZM96.3716 56L94.383 48.7273H95.2779L96.7978 54.6506H96.8688L98.4171 48.7273H99.4114L100.96 54.6506H101.031L102.551 48.7273H103.445L101.457 56H100.548L98.9426 50.2045H98.8858L97.2807 56H96.3716ZM104.275 56H103.351L106.022 48.7273H106.931L109.601 56H108.678L106.505 49.8778H106.448L104.275 56ZM104.616 53.1591H108.337V53.9403H104.616V53.1591ZM109.367 48.7273H110.376L112.393 52.1222H112.478L114.495 48.7273H115.503L112.876 53.0028V56H111.995V53.0028L109.367 48.7273Z" fill="black"/>
<circle cx="103.5" cy="21.5" r="21.3063" stroke="black" stroke-width="0.387387"/>
<circle cx="5.52027" cy="5.52027" r="5.32658" transform="matrix(-1 0 0 1 108.923 9.87842)" stroke="black" stroke-width="0.387387"/>
<circle cx="91.2974" cy="24.9864" r="1.54955" stroke="black" stroke-width="0.387387"/>
<mask id="path-6-inside-1_125_138" fill="white">
<path fill-rule="evenodd" clip-rule="evenodd" d="M93.6328 17.0566C99.0686 17.3078 103.431 21.6702 103.682 27.106C98.2464 26.8548 93.884 22.4924 93.6328 17.0566Z"/>
</mask>
<path d="M93.6328 17.0566L93.6507 16.6697L93.2262 16.6501L93.2458 17.0745L93.6328 17.0566ZM103.682 27.106L103.664 27.4929L104.089 27.5125L104.069 27.0881L103.682 27.106ZM93.6149 17.4436C98.8508 17.6856 103.053 21.888 103.295 27.1238L104.069 27.0881C103.809 21.4524 99.2864 16.9301 93.6507 16.6697L93.6149 17.4436ZM103.7 26.719C98.4641 26.477 94.2618 22.2746 94.0198 17.0388L93.2458 17.0745C93.5063 22.7102 98.0286 27.2325 103.664 27.4929L103.7 26.719Z" fill="black" mask="url(#path-6-inside-1_125_138)"/>
<mask id="path-8-inside-2_125_138" fill="white">
<path fill-rule="evenodd" clip-rule="evenodd" d="M92.1909 34.8484C92.3356 31.1997 95.2438 28.2533 98.8903 28.0609C98.7456 31.7097 95.8374 34.6561 92.1909 34.8484Z"/>
</mask>
<path d="M92.1909 34.8484L91.8038 34.833L91.787 35.2576L92.2113 35.2352L92.1909 34.8484ZM98.8903 28.0609L99.2774 28.0763L99.2942 27.6517L98.8699 27.6741L98.8903 28.0609ZM92.578 34.8637C92.7148 31.415 95.4641 28.6296 98.9107 28.4478L98.8699 27.6741C95.0236 27.8769 91.9565 30.9844 91.8038 34.833L92.578 34.8637ZM98.5032 28.0456C98.3665 31.4944 95.6172 34.2798 92.1705 34.4615L92.2113 35.2352C96.0577 35.0324 99.1248 31.925 99.2774 28.0763L98.5032 28.0456Z" fill="black" mask="url(#path-8-inside-2_125_138)"/>
<path d="M103.307 5.61719V7.55412" stroke="black" stroke-width="0.387387" stroke-linecap="round"/>
<path d="M99.6821 6.4502L100.345 8.27032" stroke="black" stroke-width="0.387387" stroke-linecap="round"/>
<path d="M100.345 32.5405L99.6827 34.3607" stroke="black" stroke-width="0.387387" stroke-linecap="round"/>
<path d="M96.4233 8.61255L97.793 9.98217" stroke="black" stroke-width="0.387387" stroke-linecap="round"/>
<path d="M94.2612 11.8716L96.0814 12.5341" stroke="black" stroke-width="0.387387" stroke-linecap="round"/>
<circle cx="1.74324" cy="1.74324" r="1.54955" transform="matrix(-1 0 0 1 117.435 23.2432)" stroke="black" stroke-width="0.387387"/>
<mask id="path-16-inside-3_125_138" fill="white">
<path fill-rule="evenodd" clip-rule="evenodd" d="M113.355 17.0564C107.92 17.3076 103.557 21.6699 103.306 27.1057C108.742 26.8545 113.104 22.4922 113.355 17.0564Z"/>
</mask>
<path d="M113.355 17.0564L113.338 16.6694L113.762 16.6498L113.742 17.0743L113.355 17.0564ZM103.306 27.1057L103.324 27.4927L102.9 27.5123L102.919 27.0878L103.306 27.1057ZM113.373 17.4434C108.137 17.6853 103.935 21.8877 103.693 27.1236L102.919 27.0878C103.18 21.4522 107.702 16.9299 113.338 16.6694L113.373 17.4434ZM103.288 26.7187C108.524 26.4768 112.727 22.2744 112.968 17.0385L113.742 17.0743C113.482 22.7099 108.96 27.2322 103.324 27.4927L103.288 26.7187Z" fill="black" mask="url(#path-16-inside-3_125_138)"/>
<mask id="path-18-inside-4_125_138" fill="white">
<path fill-rule="evenodd" clip-rule="evenodd" d="M114.798 34.8484C114.654 31.1995 111.745 28.253 108.098 28.0609C108.243 31.7098 111.152 34.6563 114.798 34.8484Z"/>
</mask>
<path d="M114.798 34.8484L115.185 34.833L115.202 35.2576L114.778 35.2352L114.798 34.8484ZM108.098 28.0609L107.711 28.0762L107.695 27.6517L108.119 27.674L108.098 28.0609ZM114.411 34.8637C114.275 31.4148 111.525 28.6293 108.078 28.4477L108.119 27.674C111.965 27.8766 115.033 30.9842 115.185 34.833L114.411 34.8637ZM108.486 28.0455C108.622 31.4945 111.372 34.28 114.819 34.4615L114.778 35.2352C110.931 35.0326 107.864 31.9251 107.711 28.0762L108.486 28.0455Z" fill="black" mask="url(#path-18-inside-4_125_138)"/>
<path d="M107.112 6.4502L106.45 8.27032" stroke="black" stroke-width="0.387387" stroke-linecap="round"/>
<path d="M106.644 32.5405L107.306 34.3607" stroke="black" stroke-width="0.387387" stroke-linecap="round"/>
<path d="M110.372 8.61255L109.002 9.98217" stroke="black" stroke-width="0.387387" stroke-linecap="round"/>
<path d="M112.533 11.8716L110.713 12.5341" stroke="black" stroke-width="0.387387" stroke-linecap="round"/>
<path d="M103.5 26.7297L103.5 37.1892" stroke="black" stroke-width="0.387387" stroke-linecap="round"/>
</svg>
