<svg width="46" height="76" viewBox="0 0 46 76" fill="none" xmlns="http://www.w3.org/2000/svg">
<path d="M19.9805 39.0672C19.9805 56.1003 23.7891 70.493 29.0204 75.1873C30.1771 73.1292 31.1779 71.5724 31.8499 70.5767V0C27.4882 2.19318 19.9805 19.5874 19.9805 39.0672ZM26.7868 11.9335L26.3786 11.7394C26.2359 11.7836 26.1246 11.8541 26.0218 11.8324C25.9802 11.8235 25.9564 11.615 25.9173 11.4697C26.3931 11.2577 26.5855 11.3507 26.7868 11.9335ZM25.6998 11.1863L25.5078 11.6761C25.4809 11.6533 25.4538 11.6307 25.4267 11.6082L25.4046 11.1379L25.6998 11.1863ZM22.0853 23.3799C22.1507 23.3454 22.2556 23.3705 22.3087 23.4342C22.3431 23.4754 22.3389 23.6496 22.313 23.7371C22.2696 23.882 21.833 24.0769 21.7013 24.0213L21.6885 23.6967C21.8495 23.5638 21.9612 23.4448 22.0853 23.3799ZM21.3691 41.6967C21.3028 41.7332 21.2081 41.6512 21.1261 41.6228C21.1499 41.5021 21.1571 41.2944 21.2 41.2761C21.3767 41.2001 21.5679 41.1185 21.7641 41.3454C21.6104 41.4877 21.4978 41.6253 21.3691 41.6967ZM22.567 58.87C22.4018 58.8976 22.2335 58.8806 22.0309 58.8806C22.2153 58.3819 22.3453 58.2642 22.5551 58.3849C22.6141 58.4188 22.6745 58.5505 22.683 58.6482C22.6898 58.7162 22.6141 58.8619 22.567 58.87ZM24.6306 61.9607C24.6094 61.7318 24.566 61.5075 24.7606 61.4977C24.8196 61.4947 24.9352 61.6663 24.9343 61.7568C24.9326 62.0529 24.7835 61.9913 24.6306 61.9607ZM24.6425 30.4309L25.2189 29.8697L25.467 30.1871C25.2338 30.6802 25.0312 30.7516 24.6425 30.4309ZM25.504 36.6872L25.2516 36.3342C25.3918 36.1145 25.4849 35.8206 25.7304 36.0054C25.8226 36.3626 25.6318 36.4858 25.504 36.6872ZM26.1722 21.9568C25.9207 21.9751 25.7334 21.7045 25.7283 21.3158C25.724 21.0121 25.885 20.6926 26.0473 20.682C26.1794 20.6735 26.5647 21.2576 26.5613 21.4619C26.5579 21.6816 26.3514 21.9441 26.1722 21.9568ZM26.5413 36.1107C26.5659 36.0699 26.6025 36.0321 26.6373 36.0258C26.6539 36.0228 26.6768 36.092 26.7163 36.1647C26.6564 36.1953 26.6195 36.2314 26.5863 36.225C26.5672 36.2212 26.5349 36.1218 26.5413 36.1107ZM26.9317 52.6001C26.6407 52.2866 26.6407 52.2866 26.8858 51.3848C27.1177 51.378 27.1904 51.4489 27.1475 51.6673C27.0876 51.9731 27.009 52.27 26.9317 52.6001ZM27.8157 23.382C27.7273 23.6237 27.5926 23.8263 27.461 24.0761C27.119 23.7256 27.0927 23.0549 27.4172 22.7049C27.6096 22.4976 27.7443 22.7146 27.8382 22.8854C27.8908 22.9806 27.8662 23.2448 27.8157 23.382ZM28.226 62.5142L27.9945 62.2045C28.1631 61.9029 28.3314 61.6808 28.5739 61.8371C28.6359 61.877 28.6508 62.0869 28.6856 62.2143L28.226 62.5142ZM29.5564 68.1235C29.5475 68.1278 29.5178 68.0908 29.5195 68.0802C29.5246 68.0466 29.5361 67.9986 29.5526 67.9906C29.5679 67.9829 29.5925 68.0194 29.6278 68.0488C29.5951 68.0844 29.5777 68.1125 29.5564 68.1235ZM30.4188 13.2984C30.3899 13.3341 30.3291 13.3124 30.2824 13.3124C29.9974 13.3116 29.7119 13.3094 29.4269 13.3082L29.4256 13.3132L29.4222 13.3082H29.4269C29.4443 13.2321 29.4545 13.1493 29.4813 13.0822C29.7013 12.5359 30.0437 12.4722 30.4188 12.5423C30.5572 12.5682 30.7773 12.4989 30.742 12.8239C30.7229 13.0053 30.5377 13.1514 30.4188 13.2984ZM31.4166 57.2146C31.5185 57.1555 31.6846 57.3492 31.8146 57.4274L31.5793 58.2234L31.1596 57.8479C31.2603 57.5803 31.3078 57.2774 31.4166 57.2146Z" fill="#FFD2B8"/>
<path d="M33.583 0.00421143V70.5758C34.255 71.5715 35.2558 73.1288 36.4129 75.1873C41.6438 70.4925 45.4528 56.1003 45.4528 39.0672C45.4528 19.5979 37.9137 2.21268 33.583 0.00421143ZM33.8056 18.1375L33.803 17.9837H34.0647L34.0668 18.1116L33.8056 18.1375ZM35.856 41.8224C35.9113 41.8228 36.0085 41.9494 36.0098 42.0241C36.0115 42.1248 35.9393 42.2285 35.8594 42.4294C35.777 42.2285 35.704 42.1269 35.7035 42.0241C35.7035 41.9524 35.8021 41.8219 35.856 41.8224ZM35.6585 22.5562L35.684 23.1016L35.3658 23.0782C35.3564 23.0359 35.3472 22.9936 35.3382 22.9512L35.6585 22.5562ZM35.6611 28.6387C35.6343 28.8281 35.6088 29.0193 35.5646 29.1998C35.5587 29.2236 35.399 29.2041 35.396 29.1799C35.3701 28.9755 35.3641 28.7653 35.3535 28.5567C35.3531 28.5473 35.365 28.5363 35.3994 28.4785H35.6598V28.4734L35.6632 28.4785H35.6598C35.6611 28.5321 35.6683 28.5877 35.6611 28.6387ZM34.6564 67.7246L34.591 67.2501L34.7121 67.1915C34.8051 67.3109 34.797 67.4557 34.6564 67.7246ZM35.4087 61.8519L34.9929 61.7827L34.975 61.6081C35.1029 61.5198 35.2282 61.4152 35.3624 61.3613C35.3803 61.3541 35.4427 61.6026 35.4844 61.7326L35.4087 61.8519ZM35.9724 54.7622C35.8038 54.7937 35.6305 54.7678 35.4589 54.7627L35.4584 54.6522C35.5748 54.5341 35.6832 54.3812 35.8114 54.3128C35.8781 54.2771 35.9797 54.391 36.0655 54.4373C36.0349 54.5511 36.0115 54.755 35.9724 54.7622ZM36.2409 45.854C36.2239 45.857 36.2014 45.7873 36.1615 45.7138C36.2218 45.6837 36.2592 45.6476 36.2927 45.6548C36.3123 45.6586 36.325 45.7321 36.3412 45.7742C36.308 45.8031 36.2762 45.8481 36.2409 45.854ZM38.2191 9.65452C38.3147 9.76454 38.4532 9.84653 38.4948 9.9918C38.5483 10.1783 38.293 10.5784 38.1754 10.4931C38.045 10.3983 37.8831 10.197 37.8615 10.0088C37.822 9.66387 38.0509 9.77729 38.2191 9.65452ZM38.3903 61.3129C38.3079 61.112 38.2349 61.0104 38.2344 60.9076C38.234 60.8358 38.3326 60.7054 38.3865 60.7059C38.4417 60.7063 38.539 60.8329 38.5407 60.9076C38.5424 61.0083 38.4702 61.112 38.3903 61.3129ZM38.7722 19.0937C38.6091 19.4467 38.4056 19.7568 38.2174 20.0826C38.0811 20.3184 37.9158 20.3209 37.7425 20.2483L37.7068 20.14L38.0327 19.8112C38.121 19.5521 38.2298 19.3244 38.2795 19.0704C38.3916 18.4909 38.4307 18.4264 38.9175 18.4013C38.8682 18.6502 38.8567 18.9111 38.7722 19.0937ZM39.7705 51.6859C39.6061 51.7199 39.437 51.6987 39.217 51.6987C39.3019 51.4565 39.3533 51.355 39.3746 51.2403C39.4073 51.0628 39.4612 50.8708 39.5878 50.9651C39.7106 51.0568 39.8044 51.2543 39.8902 51.4285C39.9047 51.4578 39.8202 51.6757 39.7705 51.6859ZM39.6129 43.2352C39.5445 43.1966 39.5135 43.0037 39.434 42.8019H39.9701C39.872 43.0394 39.821 43.3525 39.6129 43.2352ZM40.5669 53.5023C40.5474 53.4135 40.5291 53.3689 40.5321 53.3277C40.5338 53.3027 40.5776 53.2572 40.586 53.2649C40.6115 53.2874 40.6438 53.3294 40.6455 53.3668C40.6468 53.3974 40.609 53.4331 40.5669 53.5023ZM41.5911 25.8491C41.4518 25.621 41.4806 25.4447 41.6735 25.3266C41.7568 25.2756 41.8366 25.2128 41.9025 25.1665L42.3145 25.4447C42.2635 25.5475 42.2172 25.6155 42.1913 25.6987C42.0316 26.2123 41.8426 26.262 41.5911 25.8491ZM42.4241 37.9165C42.3188 37.7538 42.2109 37.6641 42.193 37.5435C42.1599 37.3201 42.2899 37.2704 42.4067 37.2691C42.5294 37.2678 42.6768 37.2878 42.6531 37.5397C42.642 37.6569 42.529 37.7516 42.4241 37.9165ZM42.5129 34.084H42.9823C42.7924 34.3899 42.7138 34.3835 42.5129 34.084ZM44.9987 47.6369V47.2286L45.0803 47.2325V47.6347L44.9987 47.6369Z" fill="#FFD2B8"/>
<path opacity="0.4" d="M20.7536 37.035C20.5021 37.035 20.2511 37.0542 20.003 37.0924C19.991 37.5318 19.9835 37.9713 19.9805 38.4109C20.234 38.3567 20.4926 38.3294 20.7519 38.3294C21.5318 38.3294 22.3138 38.5753 22.8163 39.0676C23.5652 39.8076 24.6761 40.1768 25.789 40.1768C26.9002 40.1768 28.0128 39.8076 28.7634 39.0693L27.8518 38.1425C27.3509 38.6344 26.5706 38.8824 25.789 38.8824C25.0091 38.8824 24.2271 38.6348 23.7262 38.1425C22.9773 37.4042 21.8648 37.035 20.7536 37.035Z" fill="black"/>
<path opacity="0.4" d="M20.7203 42.9149C20.493 42.9149 20.2679 42.9306 20.0444 42.9599C20.0602 43.3966 20.0776 43.8316 20.098 44.2611C20.3036 44.2262 20.5117 44.2089 20.7203 44.2092C21.5019 44.2092 22.2822 44.4552 22.783 44.9475C23.5319 45.6858 24.6428 46.0549 25.754 46.0549C26.8669 46.0549 27.9778 45.6858 28.7284 44.9475L27.8185 44.0223C27.3176 44.5142 26.5356 44.7606 25.7557 44.7606C24.9741 44.7606 24.1938 44.513 23.6929 44.0206C22.9423 43.2841 21.8311 42.9149 20.7203 42.9149Z" fill="black"/>
<path opacity="0.4" d="M25.9585 50.6062C25.1764 50.6062 24.3948 50.3602 23.8923 49.8662C23.1434 49.1279 22.0304 48.7592 20.9196 48.7592C20.748 48.7592 20.5747 48.7677 20.4048 48.7851C20.443 49.2184 20.4846 49.6479 20.528 50.0744C20.658 50.0603 20.7879 50.0535 20.9196 50.0535C21.6995 50.0535 22.4816 50.2995 22.9824 50.7935C23.7313 51.5318 24.8442 51.9005 25.9551 51.9005C26.2282 51.9005 26.5013 51.8772 26.7689 51.8326C26.7983 51.7106 26.8335 51.5764 26.8858 51.3844C27.1177 51.3776 27.1903 51.4485 27.1474 51.6669C27.1428 51.6911 27.1355 51.7166 27.1304 51.7404C27.8131 51.5705 28.4481 51.2659 28.9294 50.7931L28.0178 49.8662C27.5166 50.3602 26.7384 50.6062 25.9585 50.6062Z" fill="black"/>
<path d="M23.8952 49.8671C22.3953 48.3897 19.4485 48.3897 17.9486 49.8671C16.9465 50.8534 14.829 50.8517 13.8235 49.8671C12.3236 48.3897 9.37681 48.3897 7.87689 49.8671C6.87142 50.8526 4.75046 50.85 3.75178 49.8662C2.8249 48.9559 1.34834 48.6118 0.000488281 48.8255V50.1504C1.00256 49.927 2.1703 50.1339 2.84104 50.7927C4.34096 52.2693 7.28771 52.2701 8.78763 50.7936C9.7897 49.8072 11.9107 49.808 12.9127 50.7927C13.6625 51.5314 14.7746 51.901 15.8867 51.901C16.9988 51.901 18.1092 51.5314 18.8589 50.7936C19.861 49.8072 21.9819 49.808 22.984 50.7927C23.9177 51.7124 25.4117 52.0577 26.7684 51.8326C26.7978 51.7107 26.833 51.5764 26.8853 51.3849C27.1172 51.3781 27.1898 51.449 27.1469 51.6673C27.1423 51.6915 27.1346 51.717 27.1299 51.7412C27.8134 51.5713 28.4498 51.2663 28.9306 50.7927L28.0199 49.8671C27.0182 50.8534 24.9007 50.8517 23.8952 49.8671Z" fill="#737669"/>
<path d="M2.67488 39.0686C4.17481 40.546 7.11986 40.546 8.62318 39.0686C9.62185 38.0823 11.7411 38.084 12.7466 39.0686C14.2465 40.546 17.1933 40.546 18.6932 39.0686C19.6952 38.0823 21.8128 38.084 22.8183 39.0686C23.568 39.8073 24.6784 40.176 25.7905 40.176C26.9026 40.176 28.0147 39.8073 28.7645 39.0695L27.8537 38.1422C26.8516 39.1285 24.7307 39.1277 23.7286 38.143C22.2287 36.6656 19.2819 36.6664 17.782 38.1422C16.7799 39.1285 14.659 39.1277 13.6569 38.143C12.157 36.6656 9.21023 36.6664 7.71031 38.1422C6.70824 39.1285 4.58727 39.1277 3.5852 38.143C2.69697 37.2679 1.3024 36.9247 0 37.0866V38.383C0.961718 38.219 2.03983 38.4463 2.67488 39.0686Z" fill="#737669"/>
<path d="M2.6409 44.9472C4.14082 46.4229 7.08757 46.4255 8.58749 44.9481C9.58957 43.9634 11.7105 43.9626 12.7126 44.9472C13.4624 45.6859 14.5744 46.0546 15.6865 46.0546C16.7969 46.0546 17.909 45.6859 18.6588 44.9481C19.6608 43.9634 21.7818 43.9626 22.7839 44.9472C24.2838 46.4263 27.2305 46.4229 28.7305 44.9472L27.8197 44.0216C26.816 45.0063 24.695 45.0054 23.6946 44.0208C22.193 42.545 19.2463 42.5476 17.748 44.0216C16.7443 45.0063 14.6233 45.0054 13.6229 44.0208C12.1213 42.545 9.17455 42.5476 7.67633 44.0216C6.67255 45.0063 4.55159 45.0054 3.55122 44.0208C2.66979 43.1546 1.2922 42.8122 0 42.9635V44.2552C0.953647 44.1019 2.01561 44.3321 2.6409 44.9472Z" fill="#737669"/>
</svg>
