<svg width="29" height="4" viewBox="0 0 29 4" fill="none" xmlns="http://www.w3.org/2000/svg">
<path d="M2.6409 2.03218C4.14082 3.50789 7.08757 3.51044 8.58749 2.03303C9.58957 1.04838 11.7105 1.04752 12.7126 2.03218C13.4624 2.77088 14.5744 3.1396 15.6865 3.1396C16.7969 3.1396 17.909 2.77089 18.6588 2.03303C19.6608 1.04838 21.7818 1.04752 22.7839 2.03218C24.2838 3.51129 27.2305 3.50789 28.7305 2.03218L27.8197 1.10657C26.816 2.09123 24.695 2.09038 23.6946 1.10572C22.193 -0.369991 19.2462 -0.367439 17.748 1.10657C16.7443 2.09123 14.6233 2.09038 13.6229 1.10572C12.1213 -0.369991 9.17455 -0.367439 7.67633 1.10657C6.67255 2.09123 4.55159 2.09038 3.55122 1.10572C2.66979 0.239579 1.2922 -0.102799 0 0.0484254V1.3402C0.953647 1.18685 2.01561 1.41709 2.6409 2.03218Z" fill="#737669"/>
</svg>
