<svg width="29" height="15" viewBox="0 0 29 15" fill="none" xmlns="http://www.w3.org/2000/svg">
<path d="M23.8952 12.8671C22.3953 11.3897 19.4485 11.3897 17.9486 12.8671C16.9465 13.8534 14.829 13.8517 13.8235 12.8671C12.3236 11.3897 9.37681 11.3897 7.87689 12.8671C6.87142 13.8526 4.75046 13.85 3.75178 12.8662C2.8249 11.9559 1.34834 11.6118 0.000488281 11.8255V13.1504C1.00256 12.927 2.1703 13.1339 2.84104 13.7927C4.34096 15.2693 7.28771 15.2701 8.78763 13.7936C9.7897 12.8072 11.9107 12.808 12.9127 13.7927C13.6625 14.5314 14.7746 14.901 15.8867 14.901C16.9988 14.901 18.1092 14.5314 18.8589 13.7936C19.861 12.8072 21.9819 12.808 22.984 13.7927C23.9177 14.7124 25.4117 15.0577 26.7684 14.8326C26.7978 14.7107 26.833 14.5764 26.8853 14.3849C27.1172 14.3781 27.1898 14.449 27.1469 14.6673C27.1423 14.6915 27.1346 14.717 27.1299 14.7412C27.8134 14.5713 28.4498 14.2663 28.9306 13.7927L28.0199 12.8671C27.0182 13.8534 24.9007 13.8517 23.8952 12.8671Z" fill="#737669"/>
<path d="M2.67488 2.06861C4.17481 3.54602 7.11986 3.54602 8.62318 2.06861C9.62185 1.08226 11.7411 1.08396 12.7466 2.06861C14.2465 3.54602 17.1933 3.54602 18.6932 2.06861C19.6952 1.08226 21.8128 1.08396 22.8183 2.06861C23.568 2.80732 24.6784 3.17603 25.7905 3.17603C26.9026 3.17603 28.0147 2.80732 28.7645 2.06946L27.8537 1.14215C26.8516 2.12851 24.7307 2.12766 23.7286 1.143C22.2287 -0.334409 19.2819 -0.333559 17.782 1.14215C16.7799 2.12851 14.659 2.12766 13.6569 1.143C12.157 -0.334409 9.21023 -0.333559 7.71031 1.14215C6.70824 2.12851 4.58727 2.12766 3.5852 1.143C2.69697 0.267939 1.3024 -0.0752884 0 0.0865554V1.38301C0.961718 1.21904 2.03983 1.4463 2.67488 2.06861Z" fill="#737669"/>
<path d="M2.6409 7.94722C4.14082 9.42293 7.08757 9.42548 8.58749 7.94807C9.58957 6.96342 11.7105 6.96256 12.7126 7.94722C13.4624 8.68592 14.5744 9.05464 15.6865 9.05464C16.7969 9.05464 17.909 8.68593 18.6588 7.94807C19.6608 6.96342 21.7818 6.96256 22.7839 7.94722C24.2838 9.42633 27.2305 9.42293 28.7305 7.94722L27.8197 7.02161C26.816 8.00627 24.695 8.00542 23.6946 7.02076C22.193 5.54505 19.2463 5.5476 17.748 7.02161C16.7443 8.00627 14.6233 8.00542 13.6229 7.02076C12.1213 5.54505 9.17455 5.5476 7.67633 7.02161C6.67255 8.00627 4.55159 8.00542 3.55122 7.02076C2.66979 6.15462 1.2922 5.81224 0 5.96346V7.25524C0.953647 7.10189 2.01561 7.33213 2.6409 7.94722Z" fill="#737669"/>
</svg>
